<?xml version="1.0" encoding="utf-8"?>
<!-- Generator: Adobe Illustrator 26.4.1, SVG Export Plug-In . SVG Version: 6.00 Build 0)  -->
<svg version="1.1" id="Ebene_1" xmlns="http://www.w3.org/2000/svg" xmlns:xlink="http://www.w3.org/1999/xlink" x="0px" y="0px"
	 viewBox="0 0 296.4 338.8" style="enable-background:new 0 0 296.4 338.8;" xml:space="preserve">
<style type="text/css">
	.st0{fill:#0071C5;}
	.st1{fill:none;stroke:#000000;stroke-width:6;stroke-linecap:round;stroke-miterlimit:10;}
	.st2{fill:#FFFFFF;}
	.st3{fill:none;stroke:#000000;stroke-width:6;stroke-linecap:round;stroke-linejoin:round;}
</style>
<g>
	<path class="st0" d="M257.8,80.8V47h-208v128h60.7l24,11.4c0,0,21.2-2.6,38.3,16.2c13.7,15.1,12,32.3,11.2,36.8
		c-3.1,7.6-6.8,14.8-10.9,21.9c-5,8.6-9.8,17.4-14.5,26.2c-3.7,7-5,14.5-3.8,22.4c2.5,15.9,16.9,28.5,33.1,28.8
		c6.6,0.1,12.9-1.4,18.6-4.9c10.9-6.8,16.6-16.8,16.8-29.6c0.1-6.1-1.6-11.9-4.4-17.3c-4.6-8.4-9.1-16.8-13.9-25.1
		c-4.2-7.3-8.1-14.7-11.2-22.4c-1.1-5.3-3.1-21.6,10.5-37.1c15.4-17.5,30.2-14.6,30.2-14.6l25.6-9.4l0.7-97.5L257.8,80.8L257.8,80.8
		L257.8,80.8z"/>
	<line class="st1" x1="35.5" y1="64.5" x2="3" y2="64.5"/>
	<line class="st1" x1="35.5" y1="89.2" x2="3" y2="89.2"/>
	<line class="st1" x1="35.5" y1="113.9" x2="3" y2="113.9"/>
	<line class="st1" x1="35.5" y1="138.6" x2="3" y2="138.6"/>
	<line class="st1" x1="35.5" y1="163.3" x2="3" y2="163.3"/>
	<line class="st1" x1="35.5" y1="188" x2="3" y2="188"/>
	<line class="st1" x1="35.5" y1="212.6" x2="3" y2="212.6"/>
	<line class="st1" x1="35.5" y1="237.3" x2="3" y2="237.3"/>
	<line class="st1" x1="293.4" y1="64.5" x2="260.9" y2="64.5"/>
	<line class="st1" x1="293.4" y1="89.2" x2="260.9" y2="89.2"/>
	<line class="st1" x1="293.4" y1="113.9" x2="260.9" y2="113.9"/>
	<line class="st1" x1="293.4" y1="138.6" x2="260.9" y2="138.6"/>
	<line class="st1" x1="293.4" y1="163.3" x2="260.9" y2="163.3"/>
	<line class="st1" x1="293.4" y1="188" x2="260.9" y2="188"/>
	<line class="st1" x1="293.4" y1="212.6" x2="260.9" y2="212.6"/>
	<line class="st1" x1="293.4" y1="237.3" x2="260.9" y2="237.3"/>
	<g>
		<path class="st2" d="M35,39.3v223.5h82.5l27.8-24.2l-2.6-26.8l42-33l0.2-55l54.5-39.9L222.3,127l29.2,38.9l-24.7,50l18.9,25.1
			l-3.5,21.9h15.9c0.2,0,0.5-0.2,0.5-0.5v-223H35z"/>
		<path d="M258.5,39.3v223.1c0,0.2-0.2,0.5-0.5,0.5h-15.9l3.5-21.9l-18.9-25.1l24.7-50L222.3,127l17.1-43.2l-54.5,39.9l-0.2,55
			l-42,33l2.6,26.8l-27.8,24.2H35V39.3H258.5 M258.5,26.3H35l-13,13v223.5l13,13h82.5l8.5-3.2l23.4-20.3c2.9-2.5,5.1-5.7,6.6-9.2
			l0.1-0.2c1.4-3.6,2-7.4,1.6-11.2l-1.3-14l36.4-28.6l5-10.2l0.1-48.5l12.9-9.4l-0.5,1.4l1.7,12.6l24.4,32.5L218.1,204
			c-2,4-2.8,8.5-2.4,12.9l0,0c0.4,4.4,2.1,8.7,4.8,12.2l11.5,15.2l-2,12.7c-0.4,2.4,0.3,4.8,1.9,6.6l7.2,8.4c2,2.4,5,3.7,8.1,3.7
			h10.9c7.4,0,13.5-6,13.5-13.5V39.3L258.5,26.3L258.5,26.3L258.5,26.3z"/>
	</g>
	<line class="st1" x1="233.1" y1="35.5" x2="233.1" y2="3"/>
	<line class="st1" x1="208.4" y1="35.5" x2="208.4" y2="3"/>
	<line class="st1" x1="183.7" y1="35.5" x2="183.7" y2="3"/>
	<line class="st1" x1="159" y1="35.5" x2="159" y2="3"/>
	<line class="st1" x1="134.3" y1="35.5" x2="134.3" y2="3"/>
	<line class="st1" x1="109.6" y1="35.5" x2="109.6" y2="3"/>
	<line class="st1" x1="84.9" y1="35.5" x2="84.9" y2="3"/>
	<line class="st1" x1="60.2" y1="35.5" x2="60.2" y2="3"/>
	<line class="st1" x1="109.6" y1="298.5" x2="109.6" y2="266"/>
	<line class="st1" x1="84.9" y1="298.5" x2="84.9" y2="266"/>
	<line class="st1" x1="60.2" y1="298.5" x2="60.2" y2="266"/>
	<polyline class="st3" points="123,224.8 72.9,224.8 72.9,77.4 220.3,77.4 	"/>
	<g>
		<path class="st2" d="M184,263.8V301c-5.1,1.9-8.8,6.9-8.8,12.6c0,7.5,6,13.5,13.5,13.5s13.5-6,13.5-13.5c0-5.9-3.8-10.9-9-12.7v-4
			l3.2-2.5l-3.2-1.9v-3.2l5.3-3.3l-5.3-3v-7.9l2.9-2.6l-2.9-2.5V264l-4.6-2.8L184,263.8L184,263.8L184,263.8z"/>
		<g>
			<path class="st0" d="M188.8,323.9c-3.2,0-5.8-2.6-5.8-5.8s2.6-5.8,5.8-5.8s5.8,2.6,5.8,5.8S192,323.9,188.8,323.9z"/>
			<path class="st2" d="M188.8,312.9c2.9,0,5.3,2.4,5.3,5.3s-2.4,5.3-5.3,5.3s-5.3-2.4-5.3-5.3S185.9,312.9,188.8,312.9
				 M188.8,311.9c-3.5,0-6.3,2.8-6.3,6.3s2.8,6.3,6.3,6.3s6.3-2.8,6.3-6.3S192.2,311.9,188.8,311.9L188.8,311.9z"/>
		</g>
	</g>
</g>
<g>
	<path d="M119.1,128.6h-15.6l-0.2-7.2h-7.8l-2.9,7.2h-5.9l13.7-31.3H118v5.1h-10.4l0.3,7.6h8.8v5.1H108l0.3,8.5h10.8L119.1,128.6
		L119.1,128.6L119.1,128.6z M97.6,116.1h5.4l-0.4-12.2L97.6,116.1z"/>
	<path d="M127.6,117.5v11h-5.2V97.3h9.9c1.9,0,3.6,0.4,5,1.3s2.6,2.1,3.3,3.7s1.2,3.4,1.2,5.4c0,3.1-0.9,5.5-2.6,7.2
		s-4.1,2.7-7.1,2.7L127.6,117.5L127.6,117.5z M127.6,112.3h4.7c1.4,0,2.4-0.4,3.2-1.2c0.7-0.8,1.1-1.9,1.1-3.4s-0.4-2.8-1.1-3.7
		s-1.7-1.4-3-1.5h-4.8V112.3z"/>
	<path d="M151,128.6h-5.2V97.3h5.2V128.6z"/>
	<path d="M175.8,118.1c-0.2,3.4-1.2,6-3,7.9s-4.2,2.9-7.2,2.9c-3.2,0-5.8-1.3-7.7-4.1c-1.9-2.7-2.8-6.4-2.8-11.1v-1.9
		c0-3,0.4-5.7,1.3-7.9s2.1-4.1,3.7-5.3c1.6-1.2,3.5-1.8,5.6-1.8c2.9,0,5.3,1,7.1,2.9c1.8,1.9,2.8,4.7,3.1,8.1h-5.2
		c-0.1-2-0.6-3.5-1.4-4.4c-0.8-0.9-2-1.4-3.6-1.4c-1.7,0-3.1,0.8-3.9,2.3c-0.9,1.5-1.3,3.9-1.3,7.2v2.4c0,3.4,0.4,5.8,1.2,7.4
		s2.1,2.3,3.9,2.3c1.6,0,2.8-0.4,3.6-1.4s1.2-2.3,1.4-4.2L175.8,118.1L175.8,118.1z"/>
	<path d="M91.9,165.1H103v5.2H86.7V139h5.2L91.9,165.1L91.9,165.1L91.9,165.1z"/>
	<path d="M121.7,156.7h-10v8.4h11.8v5.2h-17V139h17v5.2h-11.8v7.5h10V156.7L121.7,156.7L121.7,156.7z"/>
	<path d="M143.2,163.8h-9.2l-1.7,6.4h-5.6l9.4-31.3h4.9l9.5,31.3H145L143.2,163.8L143.2,163.8L143.2,163.8z M135.5,158.6h6.4
		l-3.2-11.7L135.5,158.6z"/>
	<path d="M161.9,157.7l-2.7,3.6v8.9h-5.2V139h5.2v14.2l2.3-3.9l6.5-10.3h6.4l-9,13.9l9.3,17.4h-6.2L161.9,157.7L161.9,157.7z"/>
</g>
</svg>
