<?xml version="1.0" standalone="no"?>
<!DOCTYPE svg PUBLIC "-//W3C//DTD SVG 20010904//EN"
 "http://www.w3.org/TR/2001/REC-SVG-20010904/DTD/svg10.dtd">
<svg version="1.0" xmlns="http://www.w3.org/2000/svg"
 width="758.000000pt" height="758.000000pt" viewBox="0 0 758.000000 758.000000"
 preserveAspectRatio="xMidYMid meet">
<metadata>
Created by potrace 1.11, written by Peter Selinger 2001-2013
</metadata>
<g transform="translate(0.000000,758.000000) scale(0.100000,-0.100000)"
fill="#000000" stroke="none">
<path d="M4746 7402 c-4 -3 -16 -7 -27 -9 -22 -3 -86 -36 -109 -55 -8 -7 -28
-31 -45 -53 -35 -47 -37 -51 -68 -90 -13 -16 -58 -79 -100 -140 -42 -60 -80
-114 -85 -120 -21 -26 -92 -137 -92 -144 0 -5 -7 -14 -15 -21 -7 -6 -29 -37
-47 -67 -18 -31 -41 -68 -50 -82 -10 -14 -22 -35 -27 -46 -17 -40 -31 -42
-216 -40 -99 2 -183 3 -188 4 -4 1 -7 57 -6 126 2 116 0 127 -19 145 -27 25
-37 25 -62 0 -18 -18 -20 -33 -20 -145 0 -112 -2 -125 -17 -126 -22 -1 -328 2
-477 4 l-110 2 0 146 c-1 122 -4 148 -18 162 -20 20 -38 21 -62 4 -16 -12 -18
-31 -20 -160 l-1 -146 -31 -33 c-90 -97 -144 -170 -145 -196 -1 -15 -3 -45 -5
-67 -12 -136 -12 -136 105 -195 l68 -35 -4 -105 c-4 -108 -8 -126 -19 -94 -3
10 -10 28 -14 39 -5 11 -14 35 -22 53 -11 28 -66 71 -98 77 -26 5 -97 45 -97
56 -2 45 -35 165 -50 178 -10 9 -37 22 -59 29 -23 7 -46 18 -51 25 -12 15 -49
137 -59 190 -12 70 -28 75 -247 77 -105 1 -223 2 -262 3 l-70 2 -1 131 c-1 72
-4 142 -7 156 -9 34 -52 43 -78 17 -15 -15 -18 -35 -18 -136 0 -65 0 -130 -1
-144 l0 -26 -151 2 c-204 2 -192 14 -193 -194 l-1 -162 -151 5 c-134 4 -154 3
-167 -12 -17 -19 -15 -49 5 -68 9 -8 59 -15 148 -19 74 -3 142 -8 150 -11 13
-3 15 -49 12 -351 -1 -192 -4 -353 -6 -359 -2 -5 -19 -9 -37 -7 -19 1 -85 5
-147 7 -102 4 -115 3 -133 -15 -43 -43 -9 -78 82 -83 35 -2 73 -4 84 -5 15 -1
16 -4 7 -13 -16 -16 -15 -53 1 -66 16 -13 61 -21 215 -37 77 -8 142 -15 187
-20 22 -3 63 -7 90 -10 28 -4 66 -8 85 -11 19 -2 60 -6 90 -9 61 -5 134 -14
165 -20 11 -2 30 -4 42 -4 18 -1 21 -6 18 -28 -2 -16 -6 -62 -10 -103 -4 -41
-8 -86 -10 -100 -1 -14 -6 -59 -9 -100 -4 -41 -9 -86 -11 -100 -2 -14 -7 -56
-10 -95 -4 -38 -9 -83 -11 -100 -15 -131 -15 -183 1 -199 9 -9 28 -16 43 -17
15 0 56 -3 92 -6 83 -7 487 -8 520 -1 75 15 169 80 171 116 0 9 2 31 4 47 9
72 17 144 21 190 2 28 6 70 9 95 11 102 15 138 20 195 3 33 7 69 10 80 2 11 4
23 4 27 1 4 13 5 29 3 15 -3 44 -6 65 -9 43 -4 50 -9 54 -34 12 -74 19 -414 9
-487 -15 -108 -21 -138 -42 -205 -40 -127 -95 -196 -188 -234 -48 -20 -150
-47 -194 -52 -18 -1 -36 -5 -40 -8 -5 -3 -31 -8 -58 -11 -27 -4 -60 -8 -74
-11 -50 -8 -210 -21 -375 -30 -156 -9 -631 -9 -760 0 -102 8 -116 9 -220 20
-68 7 -82 2 -89 -37 -4 -21 1 -31 17 -42 19 -12 177 -39 202 -34 6 1 15 0 20
-1 6 -1 19 -3 30 -4 19 -1 20 -8 19 -178 0 -98 -2 -180 -5 -183 -9 -8 -45 -8
-175 -1 -119 7 -121 7 -136 -16 -18 -27 -8 -63 19 -72 18 -6 114 -13 231 -17
l63 -2 -4 -341 c-3 -188 -5 -341 -6 -342 -1 0 -18 0 -39 2 -20 2 -85 4 -144 6
-96 3 -109 1 -121 -16 -16 -22 -12 -49 10 -67 13 -11 101 -19 246 -22 26 -1
47 -6 48 -12 1 -10 0 -79 -4 -430 l-2 -200 -83 3 c-45 1 -105 4 -134 6 -43 3
-55 0 -75 -20 -19 -19 -22 -28 -13 -44 16 -30 37 -36 125 -40 82 -3 166 -7
175 -9 3 -1 4 -66 4 -146 -2 -122 1 -149 15 -165 15 -18 32 -19 214 -21 l197
-2 0 -148 c0 -156 6 -179 50 -179 43 0 50 23 50 175 0 105 3 144 13 147 6 3
111 4 232 2 203 -2 358 -4 395 -4 8 0 67 -1 130 -2 l115 -3 1 -139 c1 -131 2
-140 23 -157 18 -14 27 -16 46 -7 29 13 32 30 31 178 -1 76 2 120 9 121 5 1
124 2 263 3 213 1 254 3 262 16 10 16 30 80 36 115 2 11 10 45 19 75 8 30 17
67 20 82 6 44 35 137 43 142 5 3 10 -21 11 -52 2 -42 10 -71 33 -112 18 -30
34 -57 37 -60 10 -9 51 -69 51 -75 0 -9 72 -110 88 -122 9 -7 39 -13 67 -13
l51 0 -1 -117 c0 -65 1 -128 3 -140 5 -30 51 -46 77 -27 18 13 20 28 20 149
l0 134 430 -4 c237 -3 455 -6 485 -8 30 -1 65 1 77 5 12 4 24 4 27 -1 3 -4 22
-6 43 -4 l38 3 -1 -138 c0 -174 12 -205 74 -178 25 10 24 4 26 181 l1 130 115
1 c63 0 120 -3 126 -8 8 -6 6 -28 -8 -81 -21 -78 -72 -231 -96 -287 -9 -19
-16 -39 -18 -45 -4 -20 -119 -250 -126 -253 -5 -2 -8 -9 -8 -16 0 -14 -111
-187 -140 -218 -11 -12 -20 -25 -20 -29 0 -3 -21 -23 -47 -42 -27 -20 -52 -40
-58 -45 -41 -33 -250 -115 -320 -125 -11 -1 -24 -5 -30 -8 -5 -3 -55 -6 -110
-7 -85 -1 -118 4 -225 34 -69 19 -132 36 -140 38 -21 5 -170 53 -257 83 -40
13 -82 26 -93 28 -11 2 -25 7 -31 11 -6 4 -27 10 -45 14 -29 7 -37 4 -54 -17
-29 -38 -8 -69 60 -90 19 -6 94 -30 165 -53 259 -83 442 -136 510 -147 72 -11
179 -3 290 22 65 15 125 30 134 35 9 4 56 27 105 49 157 73 228 141 348 336
93 151 250 495 273 597 16 75 48 195 54 208 5 8 14 15 22 16 8 0 19 2 26 2 7
1 38 26 69 55 31 28 69 63 84 77 51 47 215 198 259 239 42 39 48 41 110 42
213 4 353 67 415 187 46 90 69 307 42 409 -17 65 -51 133 -85 169 -22 24 -26
37 -26 98 -1 76 8 108 28 101 6 -2 64 -6 128 -9 106 -5 118 -3 134 14 22 25
13 66 -18 76 -22 7 -57 10 -194 14 l-73 3 0 68 c0 73 1 74 67 85 16 2 39 7 53
9 14 3 39 8 55 11 86 14 439 98 514 121 47 15 91 28 96 29 6 1 43 14 83 29 95
34 178 80 220 119 34 32 76 109 88 161 9 38 13 267 6 280 -4 5 -7 16 -8 25 -7
65 -15 113 -20 121 -3 5 -8 22 -10 37 -14 74 -80 249 -106 282 -39 47 -121 78
-198 74 -51 -3 -142 -13 -165 -18 -11 -2 -51 -7 -90 -11 -38 -4 -79 -9 -90
-11 -11 -3 -42 -7 -70 -10 -27 -3 -61 -7 -75 -9 -14 -2 -54 -6 -90 -10 -36 -4
-68 -9 -72 -12 -6 -3 -75 -11 -152 -17 -18 -1 -20 7 -20 77 l-1 78 132 -6
c149 -7 173 -1 173 44 0 40 -29 51 -155 56 -160 7 -150 2 -150 69 l0 58 70 37
c104 55 283 150 340 181 28 15 104 55 170 90 201 104 269 148 348 220 74 68
107 134 101 204 -15 202 -186 558 -330 686 -55 49 -102 81 -124 85 -10 2 -27
8 -37 13 -10 5 -38 8 -63 6 -47 -2 -57 -4 -128 -24 -29 -7 -48 -8 -56 -1 -6 5
-61 12 -121 15 -61 3 -121 7 -134 8 l-23 3 1 146 c2 130 0 147 -17 162 -16 14
-44 17 -184 18 -91 1 -169 4 -174 8 -5 3 -9 72 -9 153 -1 133 -2 149 -20 161
-21 16 -48 12 -66 -9 -8 -9 -12 -66 -13 -162 l-1 -147 -149 0 c-81 0 -149 2
-151 5 -2 3 8 39 22 80 62 186 20 361 -126 524 -99 109 -300 217 -491 263 -64
16 -283 27 -294 15z m283 -117 c278 -66 502 -247 546 -440 11 -49 12 -115 2
-165 -16 -78 -138 -360 -159 -368 -4 -2 -8 -10 -8 -18 0 -8 -11 -32 -25 -54
-14 -22 -25 -42 -25 -44 0 -5 -138 -239 -183 -310 -198 -313 -609 -902 -792
-1137 l-36 -46 -67 19 c-37 11 -85 24 -107 29 -21 6 -46 15 -54 22 -8 7 -17
11 -20 11 -3 -1 -13 1 -21 3 -23 8 -224 106 -235 115 -5 5 -46 35 -90 67 -83
60 -178 149 -171 160 2 3 7 22 10 41 10 65 57 234 101 366 98 292 216 542 454
957 46 80 195 312 203 315 4 2 8 8 8 13 0 8 52 88 75 115 6 7 30 42 55 79 25
37 59 84 75 105 17 21 41 53 55 71 50 67 76 90 113 103 52 18 205 13 296 -9z
m-2820 -838 l74 -2 14 -45 c7 -25 18 -61 24 -80 35 -117 45 -128 136 -154 17
-6 24 -21 38 -84 21 -102 32 -122 80 -142 22 -9 60 -26 85 -38 l45 -20 69
-176 c76 -195 88 -216 117 -216 42 0 53 32 56 162 1 68 4 186 6 263 2 77 1
149 -3 159 -3 11 -42 38 -86 61 l-79 42 -1 49 c0 68 9 95 45 134 17 19 31 38
31 43 0 4 5 5 10 2 6 -3 10 0 10 8 0 31 -19 30 805 22 331 -3 323 -3 310 -13
-12 -8 -30 -42 -134 -247 -87 -171 -132 -267 -190 -410 -44 -111 -131 -369
-131 -391 0 -10 -14 -14 -47 -15 -27 -1 -52 -1 -56 0 -5 1 -84 4 -175 6 -92 2
-264 7 -382 11 -118 3 -264 7 -325 8 l-110 1 -2 -105 c-1 -58 -2 -110 -2 -117
-1 -8 -12 -10 -33 -7 -53 7 -178 21 -263 29 -22 2 -56 6 -75 8 -19 3 -64 8
-100 12 -36 4 -78 9 -95 11 -16 2 -55 6 -85 9 -30 3 -72 7 -92 10 -71 9 -113
14 -172 20 -32 3 -63 8 -68 11 -7 4 -6 1187 1 1189 3 1 692 -6 750 -8z m4008
-36 l102 -1 -2 -218 -1 -219 -116 -59 c-108 -55 -188 -99 -320 -173 -30 -17
-100 -56 -155 -86 -55 -31 -107 -60 -115 -65 -44 -28 -151 -90 -154 -90 -4 0
-167 -96 -181 -107 -50 -38 -75 -43 -199 -43 -69 0 -126 2 -126 5 0 2 71 112
159 244 87 132 160 243 162 248 2 4 42 71 88 148 46 77 117 203 157 281 l74
140 262 -2 c145 -2 309 -3 365 -3z m738 -347 c80 -37 184 -163 257 -309 54
-107 107 -260 123 -353 14 -82 -88 -180 -310 -297 -221 -117 -264 -140 -331
-176 -39 -21 -106 -57 -150 -79 -43 -23 -106 -56 -140 -74 -137 -74 -276 -147
-389 -206 -66 -35 -124 -66 -130 -70 -5 -4 -64 -36 -130 -70 -66 -35 -147 -77
-180 -95 -33 -18 -96 -51 -140 -75 -78 -42 -135 -72 -265 -143 -158 -86 -164
-88 -196 -83 -93 18 -299 366 -349 591 -20 85 -15 208 9 234 23 25 376 261
483 322 15 9 82 49 148 89 127 76 162 97 235 138 25 14 61 36 80 49 19 12 40
23 46 23 7 0 14 4 16 8 2 5 15 15 30 23 31 16 136 75 323 179 188 105 620 321
663 331 10 2 30 10 85 30 26 10 62 21 79 24 18 4 34 8 37 10 8 8 57 -2 96 -21z
m-435 4 c0 -4 -6 -8 -14 -8 -7 0 -27 -7 -42 -15 -41 -21 -52 -19 -46 10 4 24
8 26 53 24 27 -2 49 -6 49 -11z m-4205 -1003 c33 -3 78 -8 100 -10 22 -2 40
-4 40 -5 0 -1 14 -3 30 -4 65 -5 233 -24 270 -31 11 -2 32 -4 47 -4 24 -1 26
-4 22 -33 -2 -18 -6 -55 -9 -83 -2 -27 -7 -68 -9 -90 -3 -22 -8 -67 -11 -100
-5 -57 -7 -83 -21 -207 -8 -83 -14 -112 -24 -122 -5 -5 -33 -17 -62 -27 -46
-16 -77 -18 -243 -14 -162 3 -286 9 -318 14 -5 0 -6 9 -3 19 2 9 7 49 11 87 6
67 9 93 20 195 3 25 7 70 10 100 3 30 7 78 10 105 3 28 8 75 11 105 10 95 12
115 13 116 1 2 11 1 116 -11z m3990 -629 c0 -87 -2 -161 -5 -166 -3 -4 -30
-11 -60 -15 -30 -4 -89 -13 -130 -21 -41 -8 -82 -15 -90 -15 -8 -1 -33 -6 -55
-11 -22 -6 -49 -12 -60 -14 -11 -2 -33 -7 -50 -11 -16 -4 -32 -7 -35 -7 -3 -1
-22 -11 -42 -23 -37 -22 -43 -35 -39 -88 1 -14 -9 -26 -31 -38 -52 -27 -102
-67 -109 -86 -8 -20 -22 -109 -21 -133 1 -16 -14 -17 -156 -15 l-157 2 0 128
c0 75 4 132 10 136 5 5 53 30 105 57 52 27 97 51 100 54 3 3 25 15 50 28 25
12 79 40 120 63 41 22 120 64 175 92 55 28 102 54 105 57 3 3 48 27 100 55 52
27 131 68 175 92 44 23 84 41 90 39 6 -1 10 -66 10 -160z m993 -161 c17 -3 37
-14 46 -23 27 -31 97 -238 113 -337 3 -16 8 -49 13 -72 11 -62 6 -220 -9 -273
-29 -104 -106 -153 -361 -232 -58 -18 -321 -87 -328 -87 -1 0 -15 -2 -30 -5
-15 -4 -36 -8 -47 -11 -45 -10 -322 -64 -352 -69 -18 -4 -46 -8 -63 -11 -16
-3 -45 -8 -62 -11 -18 -3 -42 -7 -53 -8 -11 -2 -33 -6 -50 -9 -29 -6 -105 -16
-155 -22 -14 -1 -40 -5 -57 -9 -28 -6 -32 -5 -27 8 3 9 10 16 14 16 5 0 15 6
22 13 7 7 36 30 63 52 73 57 115 97 110 105 -12 19 -13 123 -2 134 10 9 56 46
125 101 41 33 72 69 72 85 0 24 -26 50 -51 51 -10 1 -22 2 -26 3 -5 1 -48 8
-98 15 -49 8 -97 15 -105 17 -8 1 -21 3 -28 3 -7 1 -11 5 -8 9 3 5 7 19 10 33
3 13 13 51 23 85 l17 61 -47 61 c-26 33 -53 67 -60 74 -53 58 -52 56 -10 67
21 6 53 13 72 16 19 3 37 8 41 10 4 3 32 7 61 11 30 3 57 8 60 10 4 2 24 6 45
9 22 3 50 7 64 10 14 3 43 7 65 10 42 6 84 12 138 20 17 3 55 7 82 10 28 3 64
8 80 11 17 3 48 7 69 9 47 5 106 13 161 22 22 3 51 7 65 8 49 5 145 17 165 21
11 2 49 7 85 10 36 3 66 7 68 8 3 4 43 0 80 -9z m-4873 -763 c-4 -180 -8 -375
-9 -433 l-2 -105 -44 -47 c-31 -33 -50 -45 -64 -42 -12 2 -40 6 -63 9 -22 3
-52 8 -65 10 -12 3 -41 8 -63 10 -119 13 -145 19 -146 35 0 9 0 71 1 137 1
134 -6 153 -58 155 -15 1 -34 3 -42 4 -8 1 -35 3 -61 4 l-45 1 -22 68 c-28 86
-34 95 -66 95 -29 0 -56 -28 -51 -53 10 -52 58 -180 73 -193 9 -8 39 -16 67
-16 28 -1 61 -3 75 -5 l25 -3 2 -136 c1 -101 5 -141 15 -151 12 -12 62 -23
143 -31 11 -1 19 -6 18 -11 0 -5 -4 -47 -8 -94 -8 -100 -12 -121 -22 -131 -5
-4 -49 -28 -100 -54 -53 -27 -95 -55 -98 -65 -8 -24 14 -58 40 -62 27 -5 253
108 259 130 6 22 14 78 21 167 8 91 13 104 33 101 148 -28 202 -28 224 -2 18
21 18 18 15 -107 -2 -70 0 -132 3 -137 3 -6 160 -12 385 -14 407 -6 1235 -17
1374 -20 l85 -1 1 -210 c2 -261 9 -286 96 -314 53 -17 92 -24 214 -40 134 -18
154 -20 239 -26 44 -4 99 -8 121 -11 22 -3 72 -7 110 -9 39 -2 113 -7 165 -11
123 -8 145 -9 555 -29 83 -4 82 -4 63 -15 -9 -6 -32 -25 -50 -43 -52 -49 -219
-203 -255 -235 l-33 -28 -222 2 c-123 1 -511 5 -863 9 -420 4 -644 10 -652 17
-7 6 -13 16 -13 22 0 7 -8 21 -17 32 -10 10 -41 56 -70 102 l-52 82 -6 103
c-10 182 -16 204 -62 227 -15 8 -30 17 -33 20 -3 3 -23 15 -45 26 l-40 22 0
77 c0 64 -3 79 -19 91 -25 18 -41 18 -60 -2 -18 -18 -18 -13 -21 -124 -1 -48
2 -91 8 -98 6 -7 38 -29 71 -48 34 -20 63 -38 65 -39 1 -2 -15 -37 -38 -79
-33 -61 -67 -164 -86 -265 -2 -9 -4 -16 -5 -16 -1 0 -4 -12 -6 -26 -2 -14 -10
-45 -17 -70 l-13 -44 -354 3 c-429 3 -385 3 -467 2 -21 0 -56 0 -78 1 -86 1
-669 7 -816 8 l-156 1 3 258 c17 1594 21 1943 23 1953 1 3 121 6 269 6 147 -1
326 2 397 6 135 7 279 18 282 21 1 1 12 2 23 3 l21 2 -6 -327z m3231 178 c48
0 52 -2 65 -32 17 -41 15 -105 -5 -152 -15 -35 -16 -36 -73 -37 -32 0 -71 -2
-88 -3 -16 -2 -91 -6 -165 -10 -74 -4 -160 -9 -190 -11 -30 -2 -108 -6 -173
-9 l-117 -7 30 48 c16 26 30 50 30 54 0 3 -22 41 -50 83 -27 42 -50 78 -50 80
0 3 152 2 786 -4z m-123 -385 c31 -62 34 -87 12 -105 -8 -7 -15 -19 -15 -27 0
-7 -6 -24 -13 -36 -8 -12 -13 -29 -12 -37 1 -8 3 -22 3 -31 2 -14 46 -41 69
-41 4 0 18 -4 30 -9 12 -4 41 -11 65 -14 24 -3 66 -9 93 -13 46 -7 73 -5 210
13 28 4 64 8 80 10 17 2 68 11 115 19 133 24 120 41 116 -146 -2 -90 -4 -164
-5 -166 0 -1 -9 2 -18 7 -10 5 -43 12 -73 15 -30 4 -71 9 -90 11 -46 7 -124
15 -180 19 -25 2 -65 6 -90 10 -46 5 -132 14 -230 22 -30 3 -71 6 -90 8 -19 2
-75 7 -125 11 -108 9 -107 9 -121 17 -6 5 -10 91 -9 255 l1 248 60 5 c32 3 88
6 124 7 l65 3 28 -55z m-518 -550 c39 -3 99 -8 135 -10 83 -6 170 -13 240 -21
30 -3 75 -7 100 -9 25 -2 74 -7 110 -11 87 -8 132 -12 212 -18 38 -3 71 -7 75
-9 5 -3 49 -8 99 -11 50 -4 102 -9 115 -11 13 -2 46 -6 72 -9 26 -3 56 -10 66
-15 10 -6 20 -8 23 -6 8 8 88 -66 103 -95 63 -121 54 -351 -17 -452 -25 -36
-72 -63 -148 -87 -58 -18 -86 -20 -309 -16 -135 2 -286 6 -336 9 -49 3 -135 8
-190 10 -129 7 -256 15 -325 21 -30 3 -84 7 -120 10 -36 3 -90 8 -120 11 -30
3 -71 7 -90 9 -42 3 -149 16 -170 20 -8 1 -47 8 -87 15 -40 6 -78 19 -85 27
-14 17 -17 305 -6 468 3 44 6 90 7 102 1 28 46 59 112 78 43 12 97 14 259 11
113 -3 237 -7 275 -11z"/>
<path d="M4740 6890 c-8 -5 -10 -17 -6 -35 4 -15 9 -25 12 -22 3 3 31 -6 62
-20 67 -30 105 -46 112 -48 3 0 27 -11 54 -23 27 -12 51 -22 53 -22 3 0 19 -6
36 -14 86 -37 107 -46 166 -70 75 -30 87 -32 95 -10 10 27 7 31 -46 54 -50 21
-85 36 -153 65 -16 8 -55 23 -85 35 -30 12 -68 28 -85 35 -32 15 -146 62 -181
75 -11 5 -27 5 -34 0z"/>
<path d="M4607 6592 c-27 -30 -21 -58 16 -75 26 -12 97 -38 117 -42 3 -1 32
-10 65 -20 33 -10 65 -20 70 -21 6 -2 64 -20 130 -42 128 -41 152 -42 172 -1
10 20 9 27 -9 46 -11 12 -23 21 -27 20 -3 -1 -28 6 -56 15 -27 9 -111 35 -185
58 -74 23 -162 51 -194 61 -73 23 -79 23 -99 1z"/>
<path d="M3975 5703 c-74 -8 -86 -29 -194 -336 -73 -207 -75 -226 -22 -245 14
-5 71 -24 125 -41 167 -53 278 -114 371 -203 53 -51 81 -59 109 -30 9 9 88
108 176 219 110 139 160 210 160 227 0 15 -19 49 -47 83 -149 186 -354 301
-568 319 -38 3 -72 7 -75 8 -3 1 -18 0 -35 -1z m252 -139 c43 -15 81 -32 85
-38 4 -6 8 -8 8 -4 0 21 155 -96 219 -165 55 -59 55 -59 3 -124 -26 -33 -58
-75 -72 -93 -14 -18 -30 -38 -35 -44 -6 -6 -26 -31 -45 -56 -69 -89 -66 -87
-97 -58 -33 30 -134 98 -146 98 -5 0 -21 8 -35 19 -15 10 -38 22 -51 26 -13 4
-40 14 -60 23 -20 9 -40 17 -46 18 -5 2 -35 11 -67 21 l-56 18 14 45 c9 25 18
52 21 60 3 8 7 20 8 25 10 39 89 241 96 243 5 2 6 8 3 14 -13 21 172 1 253
-28z"/>
<path d="M6558 5763 c-28 -32 -11 -72 101 -242 20 -30 45 -69 56 -87 11 -17
56 -86 100 -153 88 -132 120 -158 155 -126 11 10 20 24 20 32 0 7 -47 84 -104
171 -143 218 -213 326 -230 361 -32 61 -69 77 -98 44z"/>
<path d="M6316 5564 c-9 -8 -16 -24 -16 -35 0 -11 44 -92 98 -180 53 -88 106
-176 118 -196 26 -45 64 -67 88 -50 27 20 28 58 3 97 -54 81 -77 120 -77 128
0 5 -9 17 -20 27 -11 10 -17 21 -15 26 3 4 1 10 -4 13 -4 3 -28 38 -51 77 -64
108 -90 128 -124 93z"/>
<path d="M5080 5003 c-362 -265 -369 -270 -366 -297 2 -14 21 -43 43 -64 76
-74 174 -230 228 -362 70 -173 64 -166 120 -160 11 1 22 6 23 11 2 5 9 9 17 9
7 0 18 7 25 15 6 8 15 14 18 13 4 -1 25 9 47 23 22 14 61 37 87 52 25 14 63
36 85 49 21 14 45 28 53 31 95 43 125 85 136 183 10 102 -25 221 -92 311 -13
17 -24 34 -24 37 0 10 -128 130 -189 177 -35 27 -73 49 -85 49 -12 -1 -68 -35
-126 -77z m255 -147 c94 -96 134 -158 154 -241 11 -48 10 -133 -3 -153 -3 -6
-43 -32 -88 -59 -46 -26 -92 -53 -103 -60 -11 -7 -27 -15 -35 -19 -8 -4 -43
-25 -78 -46 -60 -37 -82 -41 -82 -15 0 17 -101 223 -137 279 -28 44 -66 94
-105 141 -19 22 -19 22 62 77 12 8 28 21 36 28 7 6 17 12 22 12 6 0 12 4 14 8
2 5 50 43 108 85 89 64 107 74 125 65 11 -6 61 -52 110 -102z"/>
<path d="M6777 4058 c-19 -14 -25 -36 -32 -118 -2 -30 -6 -64 -8 -75 -4 -17
-11 -78 -22 -185 -1 -14 -5 -52 -9 -85 -4 -33 -9 -80 -12 -104 -4 -34 -1 -46
13 -57 44 -33 80 -9 88 59 2 18 6 59 10 92 4 33 8 76 11 95 2 19 6 53 9 75 2
22 6 58 9 80 10 76 19 170 18 188 -2 42 -41 60 -75 35z"/>
<path d="M6483 3836 c-16 -19 -18 -44 -18 -181 l0 -159 27 -16 c26 -14 29 -13
49 7 21 20 23 33 25 175 3 163 -4 192 -45 195 -11 1 -29 -8 -38 -21z"/>
<path d="M4478 2703 c-21 -6 -31 -45 -18 -79 6 -14 12 -41 15 -58 2 -17 7 -42
10 -56 9 -40 7 -252 -3 -285 -10 -33 -7 -84 5 -96 10 -9 51 -15 158 -25 44 -3
94 -8 110 -10 17 -2 64 -6 105 -9 41 -3 87 -8 101 -10 68 -12 119 -8 139 10
46 41 104 208 102 290 -1 54 -10 119 -22 155 -16 47 -51 118 -64 129 -6 5 -51
12 -101 16 -49 3 -119 8 -155 11 -36 3 -94 7 -130 9 -36 2 -103 6 -150 8 -47
3 -92 3 -102 0z m218 -107 c86 -5 153 -10 314 -21 19 -2 38 -3 41 -4 15 -3 41
-92 46 -157 5 -57 1 -86 -17 -145 -12 -41 -27 -80 -32 -87 -8 -9 -28 -11 -67
-8 -149 13 -180 16 -231 22 -30 4 -75 8 -100 9 -25 2 -51 4 -58 4 -10 1 -12
10 -7 30 10 47 8 241 -4 300 -11 51 -8 76 8 67 4 -3 52 -7 107 -10z"/>
<path d="M6083 2567 c-22 -10 -35 -47 -37 -109 -1 -16 -5 -28 -9 -28 -5 0 -6
-4 -3 -9 3 -4 1 -35 -4 -67 -5 -32 -12 -77 -15 -99 -3 -22 -7 -54 -9 -72 -11
-74 71 -101 92 -31 6 18 16 74 22 123 7 50 14 98 16 109 2 10 6 44 10 75 3 31
8 58 10 60 6 7 -16 40 -34 50 -10 5 -26 5 -39 -2z"/>
<path d="M5880 2540 c-16 -16 -20 -34 -21 -82 0 -35 -3 -127 -5 -204 -4 -121
-2 -144 11 -158 38 -38 85 -7 86 57 1 38 2 92 9 287 2 87 2 86 -16 104 -21 21
-40 20 -64 -4z"/>
</g>
</svg>
